<svg width="100" height="111" viewBox="0 0 100 111" fill="none" xmlns="http://www.w3.org/2000/svg">
<g filter="url(#filter0_d_68_13)">
<path d="M33.779 2.10972C36.5463 1.72081 39.2295 2.37549 41.3397 3.98567C43.4516 5.59714 44.9251 8.11512 45.3786 11.3415C45.8292 14.5479 45.1991 17.9197 43.7748 20.6048C42.3569 23.2776 40.0631 25.414 37.1125 25.8287C34.162 26.2434 31.3682 24.822 29.2684 22.6435C27.1592 20.4551 25.6241 17.3876 25.1735 14.1811C24.7201 10.9548 25.4424 8.12817 27.0284 5.99698C28.613 3.86754 31.0118 2.49864 33.779 2.10972Z" fill="black"/>
<path d="M8.65163 19.7811C11.0216 18.3002 13.7389 17.807 16.3216 18.4198C18.9064 19.0328 21.2767 20.7338 23.0032 23.4968C24.7191 26.2427 25.5149 29.5793 25.3058 32.6115C25.0977 35.63 23.8712 38.5147 21.3443 40.0936C18.8174 41.6726 15.687 41.5104 12.8828 40.3743C10.0658 39.233 7.4158 37.055 5.69996 34.3091C3.97344 31.5461 3.48369 28.67 4.06574 26.0781C4.64722 23.4882 6.28169 21.262 8.65163 19.7811Z" fill="black"/>
<path d="M48.7074 29.937C34.1726 29.937 22.1296 42.043 18.3389 57.2236C16.6577 63.9568 19.2239 71.1799 25.5472 74.6041C30.5742 77.3262 38.0942 79.8372 48.7074 79.8372C59.3207 79.8372 66.8407 77.3262 71.8675 74.6041C78.1908 71.1799 80.757 63.9568 79.0759 57.2238C75.2854 42.0432 63.2423 29.937 48.7074 29.937Z" fill="black"/>
<path d="M88.7647 19.7811C86.3946 18.3002 83.6773 17.807 81.0947 18.4198C78.5099 19.0328 76.1396 20.7338 74.4131 23.4968C72.6972 26.2428 71.9014 29.5793 72.1105 32.6115C72.3187 35.63 73.5452 38.5148 76.072 40.0937C78.5988 41.6726 81.7292 41.5104 84.5335 40.3743C87.3505 39.233 90.0005 37.055 91.7163 34.3091C93.4429 31.5461 93.9326 28.67 93.3506 26.0781C92.7691 23.4882 91.1347 21.2621 88.7647 19.7811Z" fill="black"/>
<path d="M63.6374 2.10927C60.8702 1.72036 58.187 2.37504 56.0768 3.98522C53.9649 5.59669 52.4914 8.11467 52.0379 11.341C51.5873 14.5475 52.2174 17.9193 53.6417 20.6043C55.0596 23.2772 57.3534 25.4136 60.304 25.8283C63.2545 26.2429 66.0483 24.8215 68.1481 22.6431C70.2573 20.4546 71.7924 17.3871 72.243 14.1807C72.6964 10.9543 71.9741 8.12772 70.3881 5.99653C68.8035 3.86709 66.4047 2.49819 63.6374 2.10927Z" fill="black"/>
</g>
<circle cx="37.7303" cy="50.8959" r="2.99401" fill="white"/>
<circle cx="59.6864" cy="50.8959" r="2.99401" fill="white"/>
<path d="M55.1063 53.8904C55.7598 53.8904 56.238 54.5102 55.9746 55.1083C54.7377 57.9167 51.9297 59.8777 48.6641 59.8777C45.3986 59.8775 42.5913 57.9166 41.3545 55.1083C41.0911 54.5102 41.5693 53.8904 42.2228 53.8904H55.1063ZM48.7012 43.9099H48.627C48.6393 43.9099 48.6517 43.9089 48.6641 43.9089C48.6763 43.9089 48.689 43.9099 48.7012 43.9099Z" fill="white"/>
<path d="M23.4411 101.01C23.9451 101.01 24.3291 100.896 24.5931 100.668C24.8691 100.428 25.0071 100.068 25.0071 99.5879C25.0071 99.1319 24.8631 98.7839 24.5751 98.5439C24.2991 98.2919 23.8911 98.1659 23.3511 98.1659C23.1591 98.1659 22.9971 98.1719 22.8651 98.1839C22.7451 98.1839 22.6191 98.1959 22.4871 98.2199V101.01H23.4411ZM22.5051 106.788C22.3731 106.824 22.1631 106.86 21.8751 106.896C21.5991 106.932 21.3231 106.95 21.0471 106.95C20.7711 106.95 20.5251 106.926 20.3091 106.878C20.1051 106.842 19.9311 106.77 19.7871 106.662C19.6431 106.554 19.5351 106.404 19.4631 106.212C19.3911 106.02 19.3551 105.768 19.3551 105.456V96.9779C19.3551 96.7259 19.4211 96.5339 19.5531 96.4019C19.6971 96.2579 19.8891 96.1439 20.1291 96.0599C20.5371 95.9159 20.9991 95.8139 21.5151 95.7539C22.0431 95.6819 22.5711 95.6459 23.0991 95.6459C24.7551 95.6459 26.0211 95.9999 26.8971 96.7079C27.7731 97.4159 28.2111 98.3759 28.2111 99.5879C28.2111 100.176 28.1151 100.71 27.9231 101.19C27.7431 101.658 27.4671 102.066 27.0951 102.414C26.7351 102.75 26.2731 103.014 25.7091 103.206C25.1571 103.386 24.5151 103.476 23.7831 103.476H22.5051V106.788ZM29.814 97.6259C29.814 97.1099 29.964 96.7019 30.264 96.4019C30.564 96.1019 30.972 95.9519 31.488 95.9519H37.428C37.512 96.0839 37.584 96.2579 37.644 96.4739C37.716 96.6899 37.752 96.9179 37.752 97.1579C37.752 97.6139 37.65 97.9379 37.446 98.1299C37.254 98.3219 36.996 98.4179 36.672 98.4179H32.874V100.092H36.924C37.008 100.224 37.08 100.398 37.14 100.614C37.212 100.818 37.248 101.04 37.248 101.28C37.248 101.736 37.152 102.06 36.96 102.252C36.768 102.444 36.51 102.54 36.186 102.54H32.874V104.43H37.5C37.584 104.562 37.656 104.736 37.716 104.952C37.788 105.168 37.824 105.396 37.824 105.636C37.824 106.092 37.722 106.422 37.518 106.626C37.326 106.818 37.068 106.914 36.744 106.914H31.488C30.972 106.914 30.564 106.764 30.264 106.464C29.964 106.164 29.814 105.756 29.814 105.24V97.6259ZM39.1714 98.4719C39.0874 98.3399 39.0094 98.1599 38.9374 97.9319C38.8654 97.7039 38.8294 97.4639 38.8294 97.2119C38.8294 96.7439 38.9314 96.4079 39.1354 96.2039C39.3514 95.9999 39.6274 95.8979 39.9634 95.8979H47.8114C47.8954 96.0299 47.9734 96.2099 48.0454 96.4379C48.1174 96.6659 48.1534 96.9059 48.1534 97.1579C48.1534 97.6259 48.0454 97.9619 47.8294 98.1659C47.6254 98.3699 47.3554 98.4719 47.0194 98.4719H45.0214V106.788C44.8894 106.824 44.6794 106.86 44.3914 106.896C44.1154 106.932 43.8394 106.95 43.5634 106.95C43.2874 106.95 43.0414 106.926 42.8254 106.878C42.6214 106.842 42.4474 106.77 42.3034 106.662C42.1594 106.554 42.0514 106.404 41.9794 106.212C41.9074 106.02 41.8714 105.768 41.8714 105.456V98.4719H39.1714ZM48.6627 101.388C48.6627 100.452 48.8067 99.6239 49.0947 98.9039C49.3947 98.1839 49.7967 97.5839 50.3007 97.1039C50.8167 96.6119 51.4167 96.2399 52.1007 95.9879C52.7967 95.7359 53.5467 95.6099 54.3507 95.6099C55.1547 95.6099 55.8987 95.7359 56.5827 95.9879C57.2787 96.2399 57.8847 96.6119 58.4007 97.1039C58.9167 97.5839 59.3187 98.1839 59.6067 98.9039C59.9067 99.6239 60.0567 100.452 60.0567 101.388C60.0567 102.324 59.9127 103.158 59.6247 103.89C59.3367 104.61 58.9347 105.216 58.4187 105.708C57.9147 106.188 57.3147 106.554 56.6187 106.806C55.9227 107.058 55.1667 107.184 54.3507 107.184C53.5347 107.184 52.7787 107.058 52.0827 106.806C51.3867 106.542 50.7867 106.164 50.2827 105.672C49.7787 105.18 49.3827 104.574 49.0947 103.854C48.8067 103.134 48.6627 102.312 48.6627 101.388ZM51.9027 101.388C51.9027 102.48 52.1247 103.296 52.5687 103.836C53.0127 104.376 53.6067 104.646 54.3507 104.646C55.1067 104.646 55.7067 104.376 56.1507 103.836C56.5947 103.296 56.8167 102.48 56.8167 101.388C56.8167 100.308 56.5947 99.4979 56.1507 98.9579C55.7187 98.4179 55.1247 98.1479 54.3687 98.1479C53.6247 98.1479 53.0247 98.4179 52.5687 98.9579C52.1247 99.4859 51.9027 100.296 51.9027 101.388ZM64.991 103.332V106.788C64.859 106.824 64.649 106.86 64.361 106.896C64.085 106.932 63.809 106.95 63.533 106.95C63.257 106.95 63.011 106.926 62.795 106.878C62.591 106.842 62.417 106.77 62.273 106.662C62.141 106.554 62.039 106.404 61.967 106.212C61.895 106.02 61.859 105.768 61.859 105.456V96.9779C61.859 96.7259 61.925 96.5339 62.057 96.4019C62.201 96.2579 62.393 96.1439 62.633 96.0599C63.041 95.9159 63.515 95.8139 64.055 95.7539C64.595 95.6819 65.171 95.6459 65.783 95.6459C67.439 95.6459 68.687 95.9939 69.527 96.6899C70.367 97.3859 70.787 98.3279 70.787 99.5159C70.787 100.26 70.595 100.896 70.211 101.424C69.827 101.952 69.371 102.36 68.843 102.648C69.275 103.236 69.701 103.788 70.121 104.304C70.541 104.82 70.871 105.288 71.111 105.708C70.991 106.128 70.769 106.452 70.445 106.68C70.133 106.896 69.779 107.004 69.383 107.004C69.119 107.004 68.891 106.974 68.699 106.914C68.507 106.854 68.339 106.77 68.195 106.662C68.051 106.554 67.919 106.422 67.799 106.266C67.679 106.11 67.565 105.942 67.457 105.762L65.945 103.332H64.991ZM66.125 100.938C66.581 100.938 66.941 100.824 67.205 100.596C67.469 100.356 67.601 100.008 67.601 99.5519C67.601 99.0959 67.451 98.7539 67.151 98.5259C66.863 98.2859 66.401 98.1659 65.765 98.1659C65.585 98.1659 65.441 98.1719 65.333 98.1839C65.225 98.1959 65.105 98.2139 64.973 98.2379V100.938H66.125ZM78.0771 106.788C77.9451 106.824 77.7411 106.86 77.4651 106.896C77.1891 106.932 76.9191 106.95 76.6551 106.95C76.1031 106.95 75.6891 106.86 75.4131 106.68C75.1371 106.488 74.9991 106.092 74.9991 105.492V103.062C74.6991 102.618 74.3751 102.126 74.0271 101.586C73.6791 101.046 73.3371 100.494 73.0011 99.9299C72.6651 99.3659 72.3531 98.8139 72.0651 98.2739C71.7771 97.7219 71.5431 97.2179 71.3631 96.7619C71.5191 96.5459 71.7291 96.3479 71.9931 96.1679C72.2691 95.9879 72.6051 95.8979 73.0011 95.8979C73.4691 95.8979 73.8471 95.9939 74.1351 96.1859C74.4351 96.3779 74.7171 96.7379 74.9811 97.2659L76.4751 100.272H76.5831C76.7511 99.8999 76.8951 99.5639 77.0151 99.2639C77.1471 98.9519 77.2731 98.6459 77.3931 98.3459C77.5131 98.0339 77.6391 97.7159 77.7711 97.3919C77.9031 97.0559 78.0531 96.6719 78.2211 96.2399C78.4371 96.1319 78.6771 96.0479 78.9411 95.9879C79.2051 95.9279 79.4571 95.8979 79.6971 95.8979C80.1171 95.8979 80.4711 96.0119 80.7591 96.2399C81.0591 96.4559 81.2091 96.7859 81.2091 97.2299C81.2091 97.3739 81.1791 97.5479 81.1191 97.7519C81.0591 97.9559 80.9211 98.2679 80.7051 98.6879C80.4891 99.0959 80.1711 99.6539 79.7511 100.362C79.3431 101.07 78.7851 101.994 78.0771 103.134V106.788Z" fill="black"/>
<defs>
<filter id="filter0_d_68_13" x="1.83179" y="0" width="97.7527" height="85.8372" filterUnits="userSpaceOnUse" color-interpolation-filters="sRGB">
<feFlood flood-opacity="0" result="BackgroundImageFix"/>
<feColorMatrix in="SourceAlpha" type="matrix" values="0 0 0 0 0 0 0 0 0 0 0 0 0 0 0 0 0 0 127 0" result="hardAlpha"/>
<feOffset dx="2" dy="2"/>
<feGaussianBlur stdDeviation="2"/>
<feComposite in2="hardAlpha" operator="out"/>
<feColorMatrix type="matrix" values="0 0 0 0 0 0 0 0 0 0 0 0 0 0 0 0 0 0 0.25 0"/>
<feBlend mode="normal" in2="BackgroundImageFix" result="effect1_dropShadow_68_13"/>
<feBlend mode="normal" in="SourceGraphic" in2="effect1_dropShadow_68_13" result="shape"/>
</filter>
</defs>
</svg>
