<svg width="462" height="128" viewBox="0 0 462 128" fill="none" xmlns="http://www.w3.org/2000/svg">
<g filter="url(#filter0_d_82_24)">
<path d="M117.148 16.0002V46.9002L131.548 45.2002V19.6002L154.048 16.0002V47.1002L133.848 49.3002V60.9002L153.748 58.6002V97.9002L131.248 100.4V66.1002L117.148 67.8002V97.9002L94.6475 100.4V19.6002L117.148 16.0002ZM195.8 67.7002V80.4002L212.4 78.6002V19.6002L234.9 16.0002V88.7002L226.8 89.6002V95.2002L181.4 100.4V91.6002L173.3 92.4002V70.2002L195.8 67.7002ZM276.991 16.0002V50.0002L293.491 48.1002V19.6002L315.991 16.0002V97.9002L293.491 100.4V66.7002L276.991 68.6002V97.9002L254.491 100.4V19.6002L276.991 16.0002Z" fill="black"/>
</g>
<g filter="url(#filter1_d_82_24)">
<path d="M51.36 66.8002V74.5602L61.6 73.4402V87.9202L43.6 89.8402V82.0802L33.36 83.2002V73.9202L24 74.8802V54.8002L33.36 53.8402V44.8002L43.6 43.6802V35.3602L61.6 33.4402V47.9202L51.36 49.0402V57.3602L42 58.3202V67.7602L51.36 66.8002Z" fill="black"/>
</g>
<g filter="url(#filter2_d_82_24)">
<path d="M384.296 26.4802V50.4802L375.496 51.4402V72.2402L367.016 73.2002V93.7602L349.016 95.7602V71.0402L357.496 70.0802V49.5202L366.296 48.4802V28.5602L384.296 26.4802ZM410.224 56.4802V48.7202L399.984 49.8402V35.3602L417.984 33.4402V41.2002L428.224 40.0802V49.3602L437.584 48.4002V68.4802L428.224 69.4402V78.4802L417.984 79.6002V87.9202L399.984 89.8402V75.3602L410.224 74.2402V65.9202L419.584 64.9602V55.5202L410.224 56.4802Z" fill="black"/>
</g>
<defs>
<filter id="filter0_d_82_24" x="78.6475" y="0" width="253.344" height="116.4" filterUnits="userSpaceOnUse" color-interpolation-filters="sRGB">
<feFlood flood-opacity="0" result="BackgroundImageFix"/>
<feColorMatrix in="SourceAlpha" type="matrix" values="0 0 0 0 0 0 0 0 0 0 0 0 0 0 0 0 0 0 127 0" result="hardAlpha"/>
<feOffset/>
<feGaussianBlur stdDeviation="8"/>
<feComposite in2="hardAlpha" operator="out"/>
<feColorMatrix type="matrix" values="0 0 0 0 0 0 0 0 0 0 0 0 0 0 0 0 0 0 0.25 0"/>
<feBlend mode="normal" in2="BackgroundImageFix" result="effect1_dropShadow_82_24"/>
<feBlend mode="normal" in="SourceGraphic" in2="effect1_dropShadow_82_24" result="shape"/>
</filter>
<filter id="filter1_d_82_24" x="0" y="9.44043" width="85.6" height="104.4" filterUnits="userSpaceOnUse" color-interpolation-filters="sRGB">
<feFlood flood-opacity="0" result="BackgroundImageFix"/>
<feColorMatrix in="SourceAlpha" type="matrix" values="0 0 0 0 0 0 0 0 0 0 0 0 0 0 0 0 0 0 127 0" result="hardAlpha"/>
<feOffset/>
<feGaussianBlur stdDeviation="12"/>
<feComposite in2="hardAlpha" operator="out"/>
<feColorMatrix type="matrix" values="0 0 0 0 0 0 0 0 0 0 0 0 0 0 0 0 0 0 0.25 0"/>
<feBlend mode="normal" in2="BackgroundImageFix" result="effect1_dropShadow_82_24"/>
<feBlend mode="normal" in="SourceGraphic" in2="effect1_dropShadow_82_24" result="shape"/>
</filter>
<filter id="filter2_d_82_24" x="325.016" y="2.47998" width="136.569" height="117.28" filterUnits="userSpaceOnUse" color-interpolation-filters="sRGB">
<feFlood flood-opacity="0" result="BackgroundImageFix"/>
<feColorMatrix in="SourceAlpha" type="matrix" values="0 0 0 0 0 0 0 0 0 0 0 0 0 0 0 0 0 0 127 0" result="hardAlpha"/>
<feOffset/>
<feGaussianBlur stdDeviation="12"/>
<feComposite in2="hardAlpha" operator="out"/>
<feColorMatrix type="matrix" values="0 0 0 0 0 0 0 0 0 0 0 0 0 0 0 0 0 0 0.25 0"/>
<feBlend mode="normal" in2="BackgroundImageFix" result="effect1_dropShadow_82_24"/>
<feBlend mode="normal" in="SourceGraphic" in2="effect1_dropShadow_82_24" result="shape"/>
</filter>
</defs>
</svg>
