<svg role="img" viewBox="0 0 96 96" xmlns="http://www.w3.org/2000/svg" id="Velog--Streamline-Simple-Icons" height="96" width="96">
  <desc>
    Velog Streamline Icon: https://streamlinehq.com
  </desc>
  <title>Velog</title>
  <path d="M12 0C5.352 0 0 5.352 0 12v72c0 6.648 5.352 12 12 12h72c6.648 0 12 -5.352 12 -12V12c0 -6.648 -5.352 -12 -12 -12H12Zm27.532 25c2.52 0 4.02 1.2 4.5 3.6l5.852 33.212c1.86 -2.46 3.384 -4.532 4.584 -6.212 1.86 -2.64 3.572 -5.672 5.132 -9.092 1.62 -3.42 2.432 -6.48 2.432 -9.18 0 -1.62 -0.452 -2.908 -1.352 -3.868 -0.84 -1.02 -2.432 -2.308 -4.772 -3.868 2.4 -3.06 5.4 -4.592 9 -4.592 1.92 0 3.512 0.572 4.772 1.712 1.32 1.14 1.976 2.816 1.976 5.04 0 3.72 -1.56 8.372 -4.68 13.952 -3.06 5.52 -8.964 13.828 -17.724 24.928l-8.908 0.624 -6.844 -38.512h-9V28.96c2.4 -0.78 5.22 -1.624 8.46 -2.52 3.24 -0.96 5.432 -1.44 6.572 -1.44Z" fill="#12b886" stroke-width="4"></path>
</svg>